<svg width="40" height="41" viewBox="0 0 40 41" fill="none" xmlns="http://www.w3.org/2000/svg">
<path d="M16.6667 16.3333L13.3333 20.4999L16.6667 24.6666" stroke="black" stroke-width="2" stroke-linecap="round" stroke-linejoin="round"/>
<path d="M23.3333 16.3333L26.6667 20.4999L23.3333 24.6666" stroke="black" stroke-width="2" stroke-linecap="round" stroke-linejoin="round"/>
<path d="M13.1667 33.8332C16.3476 35.465 20.0068 35.907 23.4848 35.0795C26.9628 34.2521 30.0309 32.2096 32.1363 29.3202C34.2416 26.4308 35.2457 22.8844 34.9676 19.3202C34.6896 15.7559 33.1476 12.4082 30.6197 9.88024C28.0917 7.35227 24.744 5.81033 21.1797 5.53228C17.6155 5.25422 14.0691 6.25833 11.1797 8.36366C8.29028 10.469 6.24782 13.5371 5.42037 17.0151C4.59292 20.4931 5.0349 24.1523 6.66667 27.3332L3.33333 37.1666L13.1667 33.8332Z" stroke="black" stroke-width="2" stroke-linecap="round" stroke-linejoin="round"/>
</svg>
