<svg width="64" height="64" viewBox="0 0 64 64" fill="none" xmlns="http://www.w3.org/2000/svg">
<g clip-path="url(#clip0_52_5)">
<path d="M32.1185 12C23.2555 12 17.7311 16.4667 15.533 25.3172C18.8591 20.863 22.7555 19.2226 27.1519 20.3505C29.6641 20.9786 31.4905 22.805 33.4902 24.875C36.7585 28.2012 40.5268 32.0398 48.7618 32.0398C57.6123 32.0398 63.1366 27.5731 65.3348 18.7226C62.0087 23.1768 58.1122 24.8172 53.7159 23.6893C51.2037 23.0612 49.3899 21.2348 47.3776 19.1648C44.1092 15.8386 40.3409 12 32.1185 12ZM15.4752 31.9117C6.61215 31.9117 1.08782 36.3658 -1.11035 45.2264C2.2158 40.7622 6.11222 39.1343 10.5086 40.2622C13.0208 40.8903 14.8471 42.7167 16.8469 44.7867C20.1152 48.1129 23.8835 51.9515 32.1185 51.9515C40.969 51.9515 46.4933 47.4848 48.6915 38.6343C45.3653 43.0885 41.4689 44.7289 37.0726 43.5884C34.5604 42.9604 32.7466 41.1465 30.7343 39.0765C27.5237 35.7378 23.7554 31.9117 15.4752 31.9117Z" fill="#38BDF8"/>
</g>
<defs>
<clipPath id="clip0_52_5">
<rect width="64" height="64" fill="white"/>
</clipPath>
</defs>
</svg>
